<?xml version="1.0" standalone="no"?>
<!DOCTYPE svg PUBLIC "-//W3C//DTD SVG 20010904//EN"
 "http://www.w3.org/TR/2001/REC-SVG-20010904/DTD/svg10.dtd">
<svg version="1.0" xmlns="http://www.w3.org/2000/svg"
 width="500.000000pt" height="500.000000pt" viewBox="0 0 500.000000 500.000000"
 preserveAspectRatio="xMidYMid meet">
<metadata>
Created by potrace 1.11, written by Peter Selinger 2001-2013
</metadata>
<g transform="translate(0.000000,500.000000) scale(0.100000,-0.100000)"
fill="#000000" stroke="none">
<path d="M10 3355 l0 -235 925 0 925 0 0 -190 0 -190 -925 0 -925 0 0 -235 0
-235 925 0 925 0 0 -190 0 -190 -925 0 -925 0 0 -235 0 -235 1160 0 1160 0 0
1085 0 1085 -1160 0 -1160 0 0 -235z"/>
<path d="M2670 2505 l0 -1085 1160 0 1160 0 0 240 0 240 -915 0 -915 0 0 605
0 605 915 0 915 0 0 240 0 240 -1160 0 -1160 0 0 -1085z"/>
</g>
</svg>
